<svg id="Lag_1" data-name="Lag 1" xmlns="http://www.w3.org/2000/svg" viewBox="0 0 535.87 784.52" fill="rgba(255, 255, 255, 0.38)">
<path d="M533.9,149c18-119-89-141-250-149C226.57,0,99.7,12.6,50.9,63c-61,63,239,256,325,271S515.9,268,533.9,149Z"/>
<path d="M34.93,460.79c37-70,90-125,163-125,75.9,0,45,55,26,130-18.42,72.73-70,226-179,184C-13.07,627.44-13.31,552.05,34.93,460.79Z"/>
<path d="M516.42,692.24c38.47-68.83-93.76-130.82-167.43-158.3S242.91,607.45,278,725.05,478,761.08,516.42,692.24Z"/>
</svg>