<svg width="20" height="20" viewBox="0 0 20 20" fill="currentColor" xmlns="http://www.w3.org/2000/svg">
<path fill-rule="evenodd" clip-rule="evenodd" d="M0.500078 7.50001C0.500078 6.94772 0.947793 6.50001 1.50008 6.50001H18.5001C19.0524 6.50001 19.5001 6.94772 19.5001 7.50001V18.5C19.5001 19.0523 19.0524 19.5 18.5001 19.5H1.50008C0.947793 19.5 0.500078 19.0523 0.500078 18.5V7.50001ZM2.50008 8.50001V17.5H17.5001V8.50001H2.50008Z" fill="currentColor"/>
<path fill-rule="evenodd" clip-rule="evenodd" d="M5.44538 0.66795C5.60964 0.558438 5.80265 0.5 6.00008 0.5H8.50008C9.05236 0.5 9.50008 0.947715 9.50008 1.5V4.5C9.50008 5.05228 9.05236 5.5 8.50008 5.5H1.50008C1.05941 5.5 0.670684 5.21154 0.542986 4.78978C0.415287 4.36803 0.57872 3.91239 0.945378 3.66795L5.44538 0.66795ZM6.30285 2.5L4.80285 3.5H7.50008V2.5H6.30285ZM10.5001 1.5C10.5001 0.947715 10.9478 0.5 11.5001 0.5H14.0001C14.1975 0.5 14.3905 0.558438 14.5548 0.66795L19.0548 3.66795C19.4214 3.91239 19.5849 4.36803 19.4572 4.78978C19.3295 5.21154 18.9407 5.5 18.5001 5.5H11.5001C10.9478 5.5 10.5001 5.05228 10.5001 4.5V1.5ZM12.5001 2.5V3.5H15.1973L13.6973 2.5H12.5001Z" fill="currentColor"/>
</svg>