<svg width="40" height="28" viewBox="0 0 40 28" fill="none" xmlns="http://www.w3.org/2000/svg">
<path d="M36 8V4H4V8H36ZM36 14H4V24H36V14ZM4 0H36C37.0609 0 38.0783 0.421427 38.8284 1.17157C39.5786 1.92172 40 2.93913 40 4V24C40 25.0609 39.5786 26.0783 38.8284 26.8284C38.0783 27.5786 37.0609 28 36 28H4C2.93913 28 1.92172 27.5786 1.17157 26.8284C0.421427 26.0783 0 25.0609 0 24V4C0 2.93913 0.421427 1.92172 1.17157 1.17157C1.92172 0.421427 2.93913 0 4 0V0ZM8 18H10C10.5304 18 11.0391 18.2107 11.4142 18.5858C11.7893 18.9609 12 19.4696 12 20C12 20.5304 11.7893 21.0391 11.4142 21.4142C11.0391 21.7893 10.5304 22 10 22H8C7.46957 22 6.96086 21.7893 6.58579 21.4142C6.21071 21.0391 6 20.5304 6 20C6 19.4696 6.21071 18.9609 6.58579 18.5858C6.96086 18.2107 7.46957 18 8 18ZM18 18H28C28.5304 18 29.0391 18.2107 29.4142 18.5858C29.7893 18.9609 30 19.4696 30 20C30 20.5304 29.7893 21.0391 29.4142 21.4142C29.0391 21.7893 28.5304 22 28 22H18C17.4696 22 16.9609 21.7893 16.5858 21.4142C16.2107 21.0391 16 20.5304 16 20C16 19.4696 16.2107 18.9609 16.5858 18.5858C16.9609 18.2107 17.4696 18 18 18Z" fill="#00542E"/>
</svg>