<svg version="1.1" id="Layer_1" xmlns="http://www.w3.org/2000/svg" xmlns:xlink="http://www.w3.org/1999/xlink" x="0px" y="0px"
	 viewBox="0 0 331.5 344.3" style="enable-background:new 0 0 331.5 344.3;" xml:space="preserve">
<style type="text/css">
	.st0{fill:#3D502A;}
	.st1{fill:#FFFFFF;}
</style>
<path class="st0" d="M330.8,167.4c-1.1,9.2-2.9,18.4-5.5,27.3c-2.6,9-5.9,17.7-9.8,26.2c-35.3,73-113.2,133.5-197.8,122
	C12,328.5-14,196.8,6.4,108.5c3-11.5,7.2-22.7,12.7-33.1s12.2-20.3,20.1-29.1c9.6-10.6,21-19.9,34.3-27.2
	c63.4-34.6,142.2-19.2,200.9,24c27.9,21.1,48.1,49,54.5,82.4C331.6,138.8,332.3,152.9,330.8,167.4z"/>
<g>
	<path class="st1" d="M69.6,125.4v43.8h-8.1v-18.1h-19v18.1h-8.1v-43.8h8.1v17.7h19v-17.7H69.6z"/>
	<path class="st1" d="M127.8,147.3c0,13.3-8.1,22.6-20.8,22.6c-12.7,0-20.8-9.3-20.8-22.6c0-13.3,8.1-22.6,20.8-22.6
		S127.8,134,127.8,147.3z M119.5,147.3c0-9-4.3-14.4-12.5-14.4c-8.2,0-12.5,5.4-12.5,14.4c0,9,4.3,14.4,12.6,14.4
		C115.2,161.7,119.5,156.3,119.5,147.3z"/>
	<path class="st1" d="M170.4,169.2h-26v-43.8h8.1v35.8h17.9V169.2z"/>
	<path class="st1" d="M222.7,147.3c0,13.3-8.1,22.6-20.8,22.6c-12.7,0-20.8-9.3-20.8-22.6c0-13.3,8.1-22.6,20.8-22.6
		C214.7,124.7,222.7,134,222.7,147.3z M214.5,147.3c0-9-4.3-14.4-12.5-14.4c-8.2,0-12.5,5.4-12.5,14.4c0,9,4.3,14.4,12.6,14.4
		C210.2,161.7,214.5,156.3,214.5,147.3z"/>
	<path class="st1" d="M265.3,169.2h-26v-43.8h8.1v35.8h17.9V169.2z"/>
	<path class="st1" d="M280.5,169.2v-43.8h8.1v43.8H280.5z"/>
	<path class="st1" d="M83.5,198.5v1.3h0.4c2.4,0,4.3-0.2,6.4-0.5l0.5,3.2c-2.3,0.4-4.4,0.6-7,0.6h-0.3v19.6H80v-19.6h-4.6v-3.2H80
		v-1.5c0-4.4,2.1-7.3,6.4-7.3h4.5v3.4h-4.2C84.4,194.4,83.5,195.9,83.5,198.5z"/>
	<path class="st1" d="M128.6,211.2c0,7.3-4.1,11.8-10.2,11.8s-10.2-4.5-10.2-11.8c0-7.3,4.1-11.8,10.2-11.8S128.6,203.9,128.6,211.2
		z M125.1,211.2c0-5.4-2.4-8.4-6.7-8.4c-4.3,0-6.7,3-6.7,8.4c0,5.4,2.4,8.4,6.7,8.4C122.7,219.6,125.1,216.5,125.1,211.2z"/>
	<path class="st1" d="M168.5,211.2c0,7.3-4.1,11.8-10.2,11.8s-10.2-4.5-10.2-11.8c0-7.3,4.1-11.8,10.2-11.8S168.5,203.9,168.5,211.2
		z M165,211.2c0-5.4-2.4-8.4-6.7-8.4c-4.3,0-6.7,3-6.7,8.4c0,5.4,2.4,8.4,6.7,8.4C162.6,219.6,165,216.5,165,211.2z"/>
	<path class="st1" d="M205.6,202.8v-11.8h3.5v31.6h-3.5v-3.2c-1.5,2.1-3.9,3.4-7.2,3.4c-6.2,0-10.5-4.6-10.5-11.8
		c0-7.1,4.3-11.8,10.5-11.8C201.7,199.4,204.1,200.7,205.6,202.8z M205.6,211.3c0-4.6-2.4-8.5-7.3-8.5c-4.6,0-7,3.7-7,8.3
		c0,4.6,2.4,8.5,7.1,8.5S205.6,215.9,205.6,211.3z"/>
	<path class="st1" d="M247.3,216.1c0,4.6-3.8,6.8-8.2,6.8c-3.9,0-9-1.7-9-7.5c0-0.3,0-0.6,0-1h3.3c0,0.3,0,0.3,0,0.5
		c0,3.6,2.8,4.7,5.7,4.7c3,0,4.8-1.3,4.8-3.2c0-2.2-2.1-2.8-4.9-3.4c-3.6-0.8-7.8-1.8-7.8-6.6c0-4.4,3.5-7,7.6-7
		c3,0,5.9,1.3,7.5,4.2l-3,1.9c-0.8-1.9-2.8-2.8-4.8-2.8c-2.4,0-4,1.4-4,3.5c0,2.6,2.5,3.2,5.3,3.8
		C243.4,210.7,247.3,211.4,247.3,216.1z"/>
</g>
</svg>
