<svg width="28" height="23" viewBox="0 0 28 23" fill="currentColor" xmlns="http://www.w3.org/2000/svg">
<path fill-rule="evenodd" clip-rule="evenodd" d="M2 0.333496C1.26362 0.333496 0.666664 0.93045 0.666664 1.66683V18.7335C0.666664 19.4699 1.26362 20.0668 2 20.0668H3.47614C3.77038 21.7338 5.22602 23.0002 6.97743 23.0002C8.72884 23.0002 10.1845 21.7338 10.4787 20.0668H16.2756C16.5699 21.7338 18.0255 23.0002 19.7769 23.0002C21.5283 23.0002 22.984 21.7338 23.2782 20.0668H26.1778C26.9142 20.0668 27.5111 19.4699 27.5111 18.7335V12.1694C27.5111 11.9384 27.4511 11.7113 27.337 11.5105L23.9789 5.60282C23.7419 5.1859 23.2993 4.92837 22.8198 4.92837H18.1086V1.66683C18.1086 0.93045 17.5117 0.333496 16.7753 0.333496H2ZM19.7769 20.3335C20.2678 20.3335 20.6658 19.9355 20.6658 19.4446C20.6658 18.9537 20.2678 18.5557 19.7769 18.5557C19.286 18.5557 18.888 18.9537 18.888 19.4446C18.888 19.9355 19.286 20.3335 19.7769 20.3335ZM6.97743 20.3335C7.46835 20.3335 7.86632 19.9355 7.86632 19.4446C7.86632 18.9537 7.46835 18.5557 6.97743 18.5557C6.48651 18.5557 6.08854 18.9537 6.08854 19.4446C6.08854 19.9355 6.48651 20.3335 6.97743 20.3335ZM24.8445 17.4002V12.5219L22.044 7.59504H18.1086V11.2942C18.1086 12.0306 17.5117 12.6275 16.7753 12.6275C16.0389 12.6275 15.442 12.0306 15.442 11.2942V3.00016H3.33333V17.4002H4.06806C4.7115 16.4862 5.77473 15.889 6.97743 15.889C8.18013 15.889 9.24336 16.4862 9.8868 17.4002H16.6963C16.7519 17.4002 16.8067 17.4036 16.8605 17.4102C17.5032 16.4906 18.5698 15.889 19.7769 15.889C20.9796 15.889 22.0428 16.4862 22.6863 17.4002H24.8445Z" fill="currentColor"/>
</svg>